<svg width="16" height="16" viewBox="0 0 20 20" fill="none" xmlns="http://www.w3.org/2000/svg">
<path d="M1.875 20C0.840833 20 0 19.1592 0 18.125V7.5C0 7.155 0.28 6.875 0.625 6.875C0.97 6.875 1.25 7.155 1.25 7.5V18.125C1.25 18.47 1.53 18.75 1.875 18.75H18.125C18.47 18.75 18.75 18.47 18.75 18.125V7.5C18.75 7.155 19.03 6.875 19.375 6.875C19.72 6.875 20 7.155 20 7.5V18.125C20 19.1592 19.1592 20 18.125 20H1.875Z" fill="#262626"/>
<path fill-rule="evenodd" clip-rule="evenodd" d="M0 5C0 5.345 0.28 5.625 0.625 5.625H19.375C19.72 5.625 20 5.345 20 5V1.875C20 0.840833 19.1592 0 18.125 0H1.875C0.840833 0 0 0.840833 0 1.875V5ZM18.75 1.875V4.375H13.3283L14.2217 1.25H18.125C18.47 1.25 18.75 1.53 18.75 1.875ZM12.0283 4.375L12.9217 1.25H7.97167L7.07833 4.375H12.0283ZM6.67167 1.25L5.77833 4.375H1.25V1.875C1.25 1.53 1.53 1.25 1.875 1.25H6.67167Z" fill="#262626"/>
<path fill-rule="evenodd" clip-rule="evenodd" d="M7.16333 16.18C7.30167 16.2267 7.445 16.25 7.58917 16.25C7.7975 16.25 7.99833 16.2025 8.18667 16.1092L13.01 13.6967C13.2675 13.5683 13.4808 13.355 13.6092 13.0975C13.7683 12.7783 13.7942 12.415 13.6808 12.0767C13.5675 11.7383 13.3292 11.4633 13.01 11.3042L8.185 8.89083C8.00083 8.79833 7.79417 8.75 7.58833 8.75C6.85 8.75 6.25 9.35083 6.25 10.0883V14.9117C6.25 15.1183 6.29833 15.3242 6.39083 15.5083C6.55 15.8283 6.825 16.0675 7.16333 16.18ZM7.5 10.0883C7.5 10.0392 7.54 10 7.58833 10C7.60167 10 7.61583 10.0033 7.62667 10.0092L12.4508 12.4217C12.4725 12.4325 12.4875 12.4492 12.495 12.4725C12.5025 12.495 12.5008 12.5175 12.49 12.5392C12.4825 12.555 12.4675 12.57 12.4508 12.5783L7.6275 14.9908C7.615 14.9967 7.60167 15 7.58833 15C7.57917 15 7.57 14.9983 7.56 14.9958C7.5375 14.9875 7.52 14.9733 7.50917 14.9508C7.50333 14.9392 7.5 14.925 7.5 14.9117V10.0883Z" fill="#262626"/>
</svg>
